HIERARCHY
ROOT Hips
{
    OFFSET   0.000000   0.000000   0.000000
    CHANNELS 6 Xposition Yposition Zposition Zrotation Xrotation Yrotation
    JOINT Chest
    {
        OFFSET   0.000000   8.007230   0.000000
        CHANNELS 3 Zrotation Xrotation Yrotation
        JOINT Chest2
        {
            OFFSET   0.000000  22.077100   0.000000
            CHANNELS 3 Zrotation Xrotation Yrotation
            JOINT Neck
            {
                OFFSET   0.000000  23.254800  -0.000021
                CHANNELS 3 Zrotation Xrotation Yrotation
                JOINT Head
                {
                    OFFSET   0.000000  14.370000   1.956610
                    CHANNELS 3 Zrotation Xrotation Yrotation
                    End Site
                    {
                        OFFSET   0.000000  19.566000   0.000000
                    }
                }
            }
            JOINT LeftCollar
            {
                OFFSET   3.911900  19.017000  -0.467063
                CHANNELS 3 Zrotation Xrotation Yrotation
                JOINT LeftShoulder
                {
                    OFFSET  10.383700   0.000000   0.000000
                    CHANNELS 3 Zrotation Xrotation Yrotation
                    JOINT LeftElbow
                    {
                        OFFSET  26.662100   0.001529   0.000325
                        CHANNELS 3 Zrotation Xrotation Yrotation
                        JOINT LeftWrist
                        {
                            OFFSET  28.869000  -0.000011  -0.000096
                            CHANNELS 3 Zrotation Xrotation Yrotation
                            JOINT LeftFinger0
                            {
                                OFFSET   2.044650  -2.323460   3.252850
                                CHANNELS 3 Zrotation Xrotation Yrotation
                                JOINT LeftFinger01
                                {
                                    OFFSET   3.088130   0.000000   0.000000
                                    CHANNELS 3 Zrotation Xrotation Yrotation
                                    JOINT LeftFinger02
                                    {
                                        OFFSET   2.639460   0.000000   0.000000
                                        CHANNELS 3 Zrotation Xrotation Yrotation
                                        End Site
                                        {
                                            OFFSET   2.582190   0.000000   0.000000
                                        }
                                    }
                                }
                            }
                            JOINT LeftFinger1
                            {
                                OFFSET   8.364480   0.000000   3.252850
                                CHANNELS 3 Zrotation Xrotation Yrotation
                                JOINT LeftFinger11
                                {
                                    OFFSET   4.646930   0.000000   0.000000
                                    CHANNELS 3 Zrotation Xrotation Yrotation
                                    JOINT LeftFinger12
                                    {
                                        OFFSET   2.323460   0.000000   0.000000
                                        CHANNELS 3 Zrotation Xrotation Yrotation
                                        End Site
                                        {
                                            OFFSET   2.273050   0.000000   0.000000
                                        }
                                    }
                                }
                            }
                            JOINT LeftFinger2
                            {
                                OFFSET   8.364480   0.000016   1.078090
                                CHANNELS 3 Zrotation Xrotation Yrotation
                                JOINT LeftFinger21
                                {
                                    OFFSET   5.111620   0.000000   0.000000
                                    CHANNELS 3 Zrotation Xrotation Yrotation
                                    JOINT LeftFinger22
                                    {
                                        OFFSET   2.788160   0.000017   0.000000
                                        CHANNELS 3 Zrotation Xrotation Yrotation
                                        End Site
                                        {
                                            OFFSET   2.727660   0.000000   0.000000
                                        }
                                    }
                                }
                            }
                            JOINT LeftFinger3
                            {
                                OFFSET   7.899780   0.000015  -1.078090
                                CHANNELS 3 Zrotation Xrotation Yrotation
                                JOINT LeftFinger31
                                {
                                    OFFSET   4.646920   0.000000   0.000000
                                    CHANNELS 3 Zrotation Xrotation Yrotation
                                    JOINT LeftFinger32
                                    {
                                        OFFSET   2.323470   0.000000   0.000000
                                        CHANNELS 3 Zrotation Xrotation Yrotation
                                        End Site
                                        {
                                            OFFSET   2.273050   0.000000   0.000000
                                        }
                                    }
                                }
                            }
                            JOINT LeftFinger4
                            {
                                OFFSET   7.435090   0.000000  -3.252850
                                CHANNELS 3 Zrotation Xrotation Yrotation
                                JOINT LeftFinger41
                                {
                                    OFFSET   3.717550   0.000000   0.000000
                                    CHANNELS 3 Zrotation Xrotation Yrotation
                                    JOINT LeftFinger42
                                    {
                                        OFFSET   1.858760   0.000000   0.000000
                                        CHANNELS 3 Zrotation Xrotation Yrotation
                                        End Site
                                        {
                                            OFFSET   1.818440   0.000000   0.000000
                                        }
                                    }
                                }
                            }
                        }
                    }
                }
            }
            JOINT RightCollar
            {
                OFFSET  -3.911900  19.017000  -0.467062
                CHANNELS 3 Zrotation Xrotation Yrotation
                JOINT RightShoulder
                {
                    OFFSET -10.383700   0.000015   0.000000
                    CHANNELS 3 Zrotation Xrotation Yrotation
                    JOINT RightElbow
                    {
                        OFFSET -26.662100   0.001341   0.000385
                        CHANNELS 3 Zrotation Xrotation Yrotation
                        JOINT RightWrist
                        {
                            OFFSET -28.869000   0.000025  -0.000080
                            CHANNELS 3 Zrotation Xrotation Yrotation
                            JOINT RightFinger0
                            {
                                OFFSET  -2.044650  -2.323490   3.252850
                                CHANNELS 3 Zrotation Xrotation Yrotation
                                JOINT RightFinger01
                                {
                                    OFFSET  -3.088130   0.000000   0.000000
                                    CHANNELS 3 Zrotation Xrotation Yrotation
                                    JOINT RightFinger02
                                    {
                                        OFFSET  -2.639460   0.000000   0.000000
                                        CHANNELS 3 Zrotation Xrotation Yrotation
                                        End Site
                                        {
                                            OFFSET  -2.582190   0.000000   0.000000
                                        }
                                    }
                                }
                            }
                            JOINT RightFinger1
                            {
                                OFFSET  -8.364480   0.000000   3.252850
                                CHANNELS 3 Zrotation Xrotation Yrotation
                                JOINT RightFinger11
                                {
                                    OFFSET  -4.646930   0.000000   0.000000
                                    CHANNELS 3 Zrotation Xrotation Yrotation
                                    JOINT RightFinger12
                                    {
                                        OFFSET  -2.323470   0.000000   0.000000
                                        CHANNELS 3 Zrotation Xrotation Yrotation
                                        End Site
                                        {
                                            OFFSET  -2.273050   0.000000   0.000000
                                        }
                                    }
                                }
                            }
                            JOINT RightFinger2
                            {
                                OFFSET  -8.364480   0.000000   1.078090
                                CHANNELS 3 Zrotation Xrotation Yrotation
                                JOINT RightFinger21
                                {
                                    OFFSET  -5.111610   0.000000   0.000000
                                    CHANNELS 3 Zrotation Xrotation Yrotation
                                    JOINT RightFinger22
                                    {
                                        OFFSET  -2.788160   0.000000   0.000000
                                        CHANNELS 3 Zrotation Xrotation Yrotation
                                        End Site
                                        {
                                            OFFSET  -2.727660   0.000000   0.000000
                                        }
                                    }
                                }
                            }
                            JOINT RightFinger3
                            {
                                OFFSET  -7.899780   0.000000  -1.078090
                                CHANNELS 3 Zrotation Xrotation Yrotation
                                JOINT RightFinger31
                                {
                                    OFFSET  -4.646920   0.000000   0.000000
                                    CHANNELS 3 Zrotation Xrotation Yrotation
                                    JOINT RightFinger32
                                    {
                                        OFFSET  -2.323470   0.000000   0.000000
                                        CHANNELS 3 Zrotation Xrotation Yrotation
                                        End Site
                                        {
                                            OFFSET  -2.273050   0.000000   0.000000
                                        }
                                    }
                                }
                            }
                            JOINT RightFinger4
                            {
                                OFFSET  -7.435090   0.000000  -3.252850
                                CHANNELS 3 Zrotation Xrotation Yrotation
                                JOINT RightFinger41
                                {
                                    OFFSET  -3.717550   0.000000   0.000000
                                    CHANNELS 3 Zrotation Xrotation Yrotation
                                    JOINT RightFinger42
                                    {
                                        OFFSET  -1.858770   0.000000   0.000000
                                        CHANNELS 3 Zrotation Xrotation Yrotation
                                        End Site
                                        {
                                            OFFSET  -1.818440   0.000000   0.000000
                                        }
                                    }
                                }
                            }
                        }
                    }
                }
            }
        }
    }
    JOINT LeftHip
    {
        OFFSET   9.783010   0.000000   0.000000
        CHANNELS 3 Zrotation Xrotation Yrotation
        JOINT LeftKnee
        {
            OFFSET   0.000070 -41.789100   0.000028
            CHANNELS 3 Zrotation Xrotation Yrotation
            JOINT LeftAnkle
            {
                OFFSET   0.000087 -41.133200  -0.000100
                CHANNELS 3 Zrotation Xrotation Yrotation
                JOINT LeftToe
                {
                    OFFSET   0.000000  -6.358960  14.674500
                    CHANNELS 3 Zrotation Xrotation Yrotation
                    End Site
                    {
                        OFFSET   0.000000   0.000000   3.913200
                    }
                }
            }
        }
    }
    JOINT RightHip
    {
        OFFSET  -9.783020   0.000000   0.000000
        CHANNELS 3 Zrotation Xrotation Yrotation
        JOINT RightKnee
        {
            OFFSET   0.000044 -41.789100  -0.000870
            CHANNELS 3 Zrotation Xrotation Yrotation
            JOINT RightAnkle
            {
                OFFSET  -0.000090 -41.133200  -0.000245
                CHANNELS 3 Zrotation Xrotation Yrotation
                JOINT RightToe
                {
                    OFFSET   0.000000  -6.358960  14.674500
                    CHANNELS 3 Zrotation Xrotation Yrotation
                    End Site
                    {
                        OFFSET   0.000000   0.000000   3.913200
                    }
                }
            }
        }
    }
}
MOTION
Frames: 5
Frame Time:   0.016667
 -1.112860  89.394100  -0.194163  -1.149900 -12.666100  -1.518810  -1.078790   9.873180  -0.907445  -2.042640  19.761000  -1.660680  -6.112930  -4.632560  -0.495575 -10.219500  -9.073410  12.052200  14.098500   2.664040   9.615940 -82.386300 -19.660800   2.513300  -4.863960 -28.392200 -35.386700  94.933400 -81.918200  92.270800  35.082400   8.561970 -47.660500 -24.357100   0.000412   0.000254  -7.178530   0.000495   0.002663 -17.756600   1.071980  -3.342930 -14.553600   0.001830   0.000609 -10.187500  -0.000695   0.001479 -23.149000  -2.446530   5.716660 -23.270700  -0.001379   0.002190 -15.498200  -0.001274   0.003858 -22.789900  -3.371400   7.976770 -23.025600   0.008466  -0.000269 -15.335000  -0.002313   0.000095 -30.867800 -11.504100  18.451500 -49.121800  -0.001644   0.000843 -32.715100  -0.001178  -0.000805 -13.470200   2.034910  -0.334255  87.934400 -24.904500   9.910490   3.145960 -34.908000  22.653400 -39.236300 -83.746400 -27.333200 -41.506300  29.123200  68.065100  19.511300   0.001326  -0.001395   4.755630  -0.007047   0.005998  24.819700   0.287734   0.622240  20.308100   0.000856   0.001689  14.215700   0.000875   0.003191  24.582700  -1.469240  -3.208040  24.624300   0.000554   0.000205  16.399700   0.002693   0.001844  27.363700  -4.544090  -8.703470  30.286700  -0.000151   0.000239  20.170900   0.000254   0.000027  28.647800  -4.740360  -8.599820  43.505100  -0.000325   0.009138  28.974400   0.003709  -0.004452   4.297640  14.055000  -1.641920   0.096951   3.160940  15.239800  -3.717570  -4.195610   1.110810  -0.000000   0.000000   0.000000  -1.304050  13.852600  -7.325260   0.612644   2.129380 -10.473700   0.685490  -2.587530   3.504740   0.000000   0.000000   0.000000
 -1.032710  89.393400  -0.180410  -1.163120 -12.668900  -1.455480  -1.115440   9.827430  -0.846378  -2.129080  19.669000  -1.529660  -5.998560  -4.536090  -0.476103 -10.021300  -8.896360  12.460800  14.052100   2.626240   9.512520 -82.156900 -20.026900   2.556660  -4.765500 -28.186200 -35.413800  94.575000 -81.927800  92.012200  35.107100   8.548470 -47.584700 -24.319100   0.000378   0.000278  -7.159530   0.000482   0.002655 -17.797200   1.058130  -3.292370 -14.586200   0.001801   0.000580 -10.210300  -0.000654   0.001512 -23.094700  -2.494250   5.826420 -23.221200  -0.001403   0.002226 -15.465300  -0.001249   0.003829 -22.804300  -3.399360   8.027340 -23.042800   0.008427  -0.000262 -15.346500  -0.002345  -0.000000 -30.797400 -11.536200  18.546200 -49.032900  -0.001564   0.000784 -32.655900  -0.001143  -0.000752 -13.358500   2.061010  -0.341013  87.822200 -25.085300   9.778080   3.084700 -34.797800  22.643200 -38.681000 -83.773200 -26.851500 -41.522600  29.118800  68.043400  19.555700   0.001304  -0.001399   4.777850  -0.007084   0.006017  24.775400   0.272591   0.590427  20.271900   0.000878   0.001714  14.190400   0.000886   0.003192  24.549600  -1.496240  -3.271870  24.592400   0.000528   0.000237  16.378500   0.002719   0.001863  27.346500  -4.557560  -8.735010  30.200900   0.000000   0.000281  20.113800   0.000284   0.000067  28.603400  -4.748930  -8.633090  43.443100  -0.000209   0.009328  28.933100   0.003711  -0.004485   4.271270  14.090200  -1.615380   0.083373   3.097520  15.156300  -3.656230  -4.185110   1.120430  -0.000000   0.000000   0.000000  -1.318480  13.857700  -7.286770   0.588913   2.171440 -10.508400   0.729896  -2.609970   3.432460  -0.000000   0.000000  -0.000000
 -0.948179  89.392700  -0.165107  -1.173020 -12.678000  -1.398120  -1.156920   9.787900  -0.780568  -2.226080  19.589100  -1.388110  -5.868600  -4.434840  -0.455363  -9.796950  -8.710390  12.852900  14.014900   2.583850   9.412540 -81.959700 -20.420400   2.572110  -4.736160 -28.036100 -35.463600  94.815300 -81.960400  92.318100  35.116400   8.565280 -47.616100 -24.284300   0.000356   0.000217  -7.142140   0.000468   0.002650 -17.782000   1.063090  -3.311980 -14.573900   0.001770   0.000545 -10.201700  -0.000606   0.001549 -23.206400  -2.510940   5.822580 -23.333800  -0.001428   0.002262 -15.540300  -0.001219   0.003795 -22.826200  -3.407360   8.031660 -23.065200   0.008377  -0.000258 -15.361400  -0.002380  -0.000053 -30.745700 -11.631100  18.722700 -49.002100  -0.001490   0.000712 -32.635400  -0.001109  -0.000695 -13.239900   2.092770  -0.357475  87.732600 -25.234400   9.684230   3.034170 -34.710000  22.611700 -38.143300 -83.771200 -26.378600 -41.523200  29.142400  68.074700  19.577900   0.001261  -0.001404   4.788950  -0.007097   0.006041  24.746700   0.273283   0.592098  20.248500   0.000901   0.001742  14.174000   0.000900   0.003197  24.516800  -1.511030  -3.309130  24.560500   0.000501   0.000264  16.357300   0.002734   0.001881  27.333300  -4.565160  -8.755040  30.135700   0.000119   0.000315  20.070400   0.000342   0.000084  28.555200  -4.748620  -8.656500  43.371500  -0.000108   0.009518  28.885400   0.003746  -0.004520   4.241240  14.146100  -1.598500   0.065113   3.010670  15.073500  -3.594920  -4.164350   1.143560   0.000000   0.000000   0.000000  -1.337050  13.859500  -7.247500   0.559216   2.214080 -10.526500   0.769448  -2.636040   3.342050   0.000000   0.000000  -0.000000
 -0.860734  89.391900  -0.148264  -1.181170 -12.689400  -1.344950  -1.199510   9.749610  -0.709000  -2.326240  19.511600  -1.234680  -5.735860  -4.330950  -0.434556  -9.568550  -8.518790  13.186200  13.979700   2.536640   9.325340 -81.785400 -20.791600   2.579670  -4.722420 -27.922300 -35.506200  95.097100 -81.999900  92.628800  35.135100   8.633970 -47.699000 -24.250600   0.000330   0.000155  -7.125310   0.000456   0.002646 -17.766300   1.072750  -3.344230 -14.561500   0.001739   0.000506 -10.193100  -0.000557   0.001584 -23.380900  -2.514750   5.795480 -23.507800  -0.001452   0.002292 -15.656200  -0.001186   0.003755 -22.861200  -3.410920   8.032300 -23.100700   0.008322  -0.000256 -15.385000  -0.002416  -0.000103 -30.699000 -11.744600  18.921700 -48.995200  -0.001417   0.000637 -32.630800  -0.001078  -0.000639 -13.116800   2.125220  -0.375487  87.650100 -25.358800   9.610000   2.970540 -34.637900  22.548500 -37.438000 -83.729300 -25.723600 -41.532000  29.180300  68.125900  19.583400   0.001218  -0.001406   4.791730  -0.007109   0.006067  24.722800   0.278122   0.603793  20.229000   0.000925   0.001771  14.160300   0.000916   0.003201  24.497300  -1.515750  -3.322400  24.541400   0.000477   0.000290  16.344600   0.002750   0.001900  27.322700  -4.567280  -8.762160  30.083700   0.000237   0.000352  20.035800   0.000405   0.000098  28.507800  -4.748400  -8.666010  43.302000   0.000000   0.009709  28.839100   0.003780  -0.004553   4.210270  14.215700  -1.590520   0.040768   2.903140  14.997200  -3.532070  -4.134980   1.173790   0.000000   0.000000   0.000000  -1.358050  13.860900  -7.202040   0.524386   2.259630 -10.532200   0.803850  -2.662650   3.231710   0.000000   0.000000  -0.000000
 -0.771994  89.391200  -0.129382  -1.186210 -12.704600  -1.295950  -1.240910   9.711820  -0.631758  -2.426180  19.434800  -1.069970  -5.611490  -4.225410  -0.414798  -9.354540  -8.322260  13.422000  13.942100   2.467110   9.269590 -81.641700 -21.063100   2.568480  -4.694700 -27.869700 -35.527400  95.086900 -82.025200  92.617300  35.164200   8.824020 -47.873900 -24.217700   0.000285   0.000187  -7.108870   0.000449   0.002641 -17.787400   1.084160  -3.375200 -14.579500   0.001712   0.000469 -10.205700  -0.000513   0.001610 -23.514400  -2.504150   5.720240 -23.640500  -0.001479   0.002313 -15.744600  -0.001169   0.003703 -22.922500  -3.417070   8.028010 -23.162600   0.008266  -0.000261 -15.426200  -0.002451  -0.000185 -30.673400 -11.855900  19.088000 -49.000600  -0.001378   0.000568 -32.634400  -0.001065  -0.000591 -12.990500   2.147790  -0.382283  87.554200 -25.450300   9.545600   2.896310 -34.584900  22.428200 -36.466900 -83.650700 -24.777200 -41.552600  29.210700  68.152600  19.541400   0.001198  -0.001403   4.770730  -0.007147   0.006094  24.704500   0.298165   0.648174  20.214000   0.000953   0.001800  14.149800   0.000939   0.003203  24.508800  -1.499020  -3.285240  24.547600   0.000460   0.000304  16.348700   0.002776   0.001921  27.319700  -4.546260  -8.722780  30.057100   0.000305   0.000376  20.018000   0.000430   0.000108  28.478200  -4.723640  -8.628880  43.252100   0.000067   0.009900  28.805900   0.003779  -0.004573   4.180220  14.299700  -1.599800   0.006840   2.773180  14.940600  -3.467840  -4.097000   1.205790  -0.000000   0.000000   0.000000  -1.383530  13.854900  -7.147760   0.482448   2.314670 -10.518900   0.830009  -2.686570   3.095570  -0.000000   0.000000  -0.000000
